<!DOCTYPE svg PUBLIC "-//W3C//DTD SVG 1.1//EN" "http://www.w3.org/Graphics/SVG/1.1/DTD/svg11.dtd">
<!-- Uploaded to: SVG Repo, www.svgrepo.com, Transformed by: SVG Repo Mixer Tools -->
<svg width="800px" height="800px" viewBox="0 0 21 21" xmlns="http://www.w3.org/2000/svg" fill="#c20098" stroke="#c20098">
<g id="SVGRepo_bgCarrier" stroke-width="0"/>
<g id="SVGRepo_tracerCarrier" stroke-linecap="round" stroke-linejoin="round"/>
<g id="SVGRepo_iconCarrier"> <g fill="none" fill-rule="evenodd" stroke="#F6F7F8" stroke-linecap="round" stroke-linejoin="round" transform="translate(3 4)"> <path d="m2.5.5h10c1.1045695 0 2 .8954305 2 2v8c0 1.1045695-.8954305 2-2 2h-10c-1.1045695 0-2-.8954305-2-2v-8c0-1.1045695.8954305-2 2-2z"/> <path d="m10.5 2.5h1c.5522847 0 1 .44771525 1 1v1c0 .55228475-.4477153 1-1 1h-1c-.55228475 0-1-.44771525-1-1v-1c0-.55228475.44771525-1 1-1z"/> <path d="m2.5 7.5h5"/> <path d="m2.5 9.5h5"/> </g> </g>
</svg>