<!DOCTYPE svg PUBLIC "-//W3C//DTD SVG 1.1//EN" "http://www.w3.org/Graphics/SVG/1.1/DTD/svg11.dtd">
<!-- Uploaded to: SVG Repo, www.svgrepo.com, Transformed by: SVG Repo Mixer Tools -->
<svg fill="#078df2" width="800px" height="800px" viewBox="0 0 24 24" xmlns="http://www.w3.org/2000/svg">
<g id="SVGRepo_bgCarrier" stroke-width="0"/>
<g id="SVGRepo_tracerCarrier" stroke-linecap="round" stroke-linejoin="round"/>
<g id="SVGRepo_iconCarrier">
<path d="m22 2.25h-3.25v-1.5c-.014-.404-.344-.726-.75-.726s-.736.322-.75.725v.001 1.5h-4.5v-1.5c-.014-.404-.344-.726-.75-.726s-.736.322-.75.725v.001 1.5h-4.5v-1.5c-.014-.404-.344-.726-.75-.726s-.736.322-.75.725v.001 1.5h-3.25c-1.104 0-2 .895-2 1.999v17.75c0 1.105.895 2 2 2h20c1.105 0 2-.895 2-2v-17.75c0-1.104-.896-1.999-2-1.999zm.5 19.75c0 .276-.224.499-.499.5h-20.001c-.276 0-.5-.224-.5-.5v-17.75c.001-.276.224-.499.5-.499h3.25v1.5c.014.404.344.726.75.726s.736-.322.75-.725v-.001-1.5h4.5v1.5c.014.404.344.726.75.726s.736-.322.75-.725v-.001-1.5h4.5v1.5c.014.404.344.726.75.726s.736-.322.75-.725v-.001-1.5h3.25c.276 0 .499.224.499.499z"/>
<path d="m5.25 9h3v2.25h-3z"/>
<path d="m5.25 12.75h3v2.25h-3z"/>
<path d="m5.25 16.5h3v2.25h-3z"/>
<path d="m10.5 16.5h3v2.25h-3z"/>
<path d="m10.5 12.75h3v2.25h-3z"/>
<path d="m10.5 9h3v2.25h-3z"/>
<path d="m15.75 16.5h3v2.25h-3z"/>
<path d="m15.75 12.75h3v2.25h-3z"/>
<path d="m15.75 9h3v2.25h-3z"/>
</g>
</svg>